<mxfile host="65bd71144e">
    <diagram id="RzKq9KF5NWwgLoKb3BY6" name="Page-1">
        <mxGraphModel dx="289" dy="336" grid="1" gridSize="10" guides="1" tooltips="1" connect="1" arrows="1" fold="1" page="1" pageScale="1" pageWidth="1654" pageHeight="1169" math="0" shadow="0">
            <root>
                <mxCell id="0"/>
                <mxCell id="1" parent="0"/>
                <mxCell id="46" value="Modifier un contact" style="shape=umlFrame;whiteSpace=wrap;html=1;width=120;height=30;boundedLbl=1;verticalAlign=middle;align=left;spacingLeft=5;" parent="1" vertex="1">
                    <mxGeometry x="392" y="354" width="878" height="536" as="geometry"/>
                </mxCell>
                <mxCell id="2" value="&lt;u&gt;: utilisateur&lt;/u&gt;" style="shape=umlActor;verticalLabelPosition=bottom;verticalAlign=top;html=1;" parent="1" vertex="1">
                    <mxGeometry x="456" y="416" width="30" height="60" as="geometry"/>
                </mxCell>
                <mxCell id="3" value="&amp;lt;&amp;lt;boundary&amp;gt;&amp;gt;&lt;br&gt;Pokematos" style="shape=umlLifeline;perimeter=lifelinePerimeter;whiteSpace=wrap;html=1;container=1;collapsible=0;recursiveResize=0;outlineConnect=0;" parent="1" vertex="1">
                    <mxGeometry x="579" y="416" width="100" height="414" as="geometry"/>
                </mxCell>
                <mxCell id="12" value="" style="endArrow=none;dashed=1;html=1;exitX=0.09;exitY=0.888;exitDx=0;exitDy=0;exitPerimeter=0;" parent="1" edge="1" source="46">
                    <mxGeometry width="50" height="50" relative="1" as="geometry">
                        <mxPoint x="471" y="754" as="sourcePoint"/>
                        <mxPoint x="471" y="506" as="targetPoint"/>
                    </mxGeometry>
                </mxCell>
                <mxCell id="13" value="" style="endArrow=classic;html=1;entryX=0.004;entryY=0.001;entryDx=0;entryDy=0;entryPerimeter=0;" parent="1" target="58" edge="1">
                    <mxGeometry width="50" height="50" relative="1" as="geometry">
                        <mxPoint x="471" y="536" as="sourcePoint"/>
                        <mxPoint x="572" y="536" as="targetPoint"/>
                    </mxGeometry>
                </mxCell>
                <mxCell id="14" value="1 : appuie sur &quot;Pokematos&quot; -&amp;gt; loadDataCallback()&amp;nbsp;" style="edgeLabel;html=1;align=center;verticalAlign=middle;resizable=0;points=[];" parent="13" vertex="1" connectable="0">
                    <mxGeometry x="-0.5904" y="-1" relative="1" as="geometry">
                        <mxPoint x="165" y="-9" as="offset"/>
                    </mxGeometry>
                </mxCell>
                <mxCell id="15" value="&amp;lt;&amp;lt;Control&amp;gt;&amp;gt;&lt;br&gt;PokestackDataBase" style="shape=umlLifeline;perimeter=lifelinePerimeter;whiteSpace=wrap;html=1;container=1;collapsible=0;recursiveResize=0;outlineConnect=0;" parent="1" vertex="1">
                    <mxGeometry x="1075" y="416" width="115" height="424" as="geometry"/>
                </mxCell>
                <mxCell id="16" value="" style="html=1;points=[];perimeter=orthogonalPerimeter;" parent="15" vertex="1">
                    <mxGeometry x="52" y="324" width="10" height="40" as="geometry"/>
                </mxCell>
                <mxCell id="58" value="" style="html=1;points=[];perimeter=orthogonalPerimeter;" parent="15" vertex="1">
                    <mxGeometry x="52" y="120" width="10" height="40" as="geometry"/>
                </mxCell>
                <mxCell id="48" value="&amp;lt;&amp;lt;boundary&amp;gt;&amp;gt;&lt;br&gt;FicheContact" style="shape=umlLifeline;perimeter=lifelinePerimeter;whiteSpace=wrap;html=1;container=1;collapsible=0;recursiveResize=0;outlineConnect=0;" parent="1" vertex="1">
                    <mxGeometry x="807" y="416" width="100" height="424" as="geometry"/>
                </mxCell>
                <mxCell id="49" value="" style="html=1;points=[];perimeter=orthogonalPerimeter;" parent="48" vertex="1">
                    <mxGeometry x="45" y="200" width="10" height="40" as="geometry"/>
                </mxCell>
                <mxCell id="59" value="" style="endArrow=classic;html=1;exitX=-0.008;exitY=1;exitDx=0;exitDy=0;exitPerimeter=0;entryX=1.092;entryY=0;entryDx=0;entryDy=0;entryPerimeter=0;" parent="1" source="58" edge="1">
                    <mxGeometry width="50" height="50" relative="1" as="geometry">
                        <mxPoint x="690" y="560" as="sourcePoint"/>
                        <mxPoint x="634.9200000000001" y="576" as="targetPoint"/>
                    </mxGeometry>
                </mxCell>
                <mxCell id="60" value="2 : setUsers(storedusers)" style="edgeLabel;html=1;align=center;verticalAlign=middle;resizable=0;points=[];" parent="59" vertex="1" connectable="0">
                    <mxGeometry x="0.2518" y="-2" relative="1" as="geometry">
                        <mxPoint y="-7" as="offset"/>
                    </mxGeometry>
                </mxCell>
                <mxCell id="61" value="" style="endArrow=classic;html=1;entryX=-0.056;entryY=-0.007;entryDx=0;entryDy=0;entryPerimeter=0;" edge="1" parent="1" target="49">
                    <mxGeometry width="50" height="50" relative="1" as="geometry">
                        <mxPoint x="470" y="616" as="sourcePoint"/>
                        <mxPoint x="730" y="620" as="targetPoint"/>
                    </mxGeometry>
                </mxCell>
                <mxCell id="63" value="3 : appuie sur un item contact &lt;br&gt;setSelectedId(rowId) + setAfficheContact(!afficheContact)&amp;nbsp;" style="edgeLabel;html=1;align=center;verticalAlign=middle;resizable=0;points=[];" vertex="1" connectable="0" parent="61">
                    <mxGeometry x="0.0382" y="-1" relative="1" as="geometry">
                        <mxPoint y="-17" as="offset"/>
                    </mxGeometry>
                </mxCell>
                <mxCell id="64" value="" style="endArrow=classic;html=1;entryX=0.5;entryY=0;entryDx=0;entryDy=0;entryPerimeter=0;" edge="1" parent="1" target="66">
                    <mxGeometry width="50" height="50" relative="1" as="geometry">
                        <mxPoint x="470" y="680" as="sourcePoint"/>
                        <mxPoint x="550" y="690" as="targetPoint"/>
                    </mxGeometry>
                </mxCell>
                <mxCell id="67" value="4 : appuie sur &quot;modifier&quot; : setModifierContact(!modifierContact)&amp;nbsp;" style="edgeLabel;html=1;align=center;verticalAlign=middle;resizable=0;points=[];" vertex="1" connectable="0" parent="64">
                    <mxGeometry x="-0.4963" y="-1" relative="1" as="geometry">
                        <mxPoint x="109" y="-11" as="offset"/>
                    </mxGeometry>
                </mxCell>
                <mxCell id="65" value="&amp;lt;&amp;lt;boundary&amp;gt;&amp;gt;&lt;br&gt;ModifContact" style="shape=umlLifeline;perimeter=lifelinePerimeter;whiteSpace=wrap;html=1;container=1;collapsible=0;recursiveResize=0;outlineConnect=0;" vertex="1" parent="1">
                    <mxGeometry x="940" y="415" width="100" height="425" as="geometry"/>
                </mxCell>
                <mxCell id="66" value="" style="html=1;points=[];perimeter=orthogonalPerimeter;" vertex="1" parent="65">
                    <mxGeometry x="45" y="265" width="10" height="40" as="geometry"/>
                </mxCell>
                <mxCell id="70" value="" style="endArrow=classic;html=1;exitX=0;exitY=1;exitDx=0;exitDy=0;exitPerimeter=0;" edge="1" parent="65">
                    <mxGeometry width="50" height="50" relative="1" as="geometry">
                        <mxPoint x="186.99999999999977" y="365" as="sourcePoint"/>
                        <mxPoint x="-80" y="365" as="targetPoint"/>
                    </mxGeometry>
                </mxCell>
                <mxCell id="71" value="6 : setModifierContact(!modifierContact)" style="edgeLabel;html=1;align=center;verticalAlign=middle;resizable=0;points=[];" vertex="1" connectable="0" parent="70">
                    <mxGeometry x="0.7641" relative="1" as="geometry">
                        <mxPoint x="112" y="-10" as="offset"/>
                    </mxGeometry>
                </mxCell>
                <mxCell id="68" value="" style="endArrow=classic;html=1;entryX=0.015;entryY=0.01;entryDx=0;entryDy=0;entryPerimeter=0;" edge="1" parent="1" target="16">
                    <mxGeometry width="50" height="50" relative="1" as="geometry">
                        <mxPoint x="470" y="740" as="sourcePoint"/>
                        <mxPoint x="1005.01" y="740.0800000000002" as="targetPoint"/>
                    </mxGeometry>
                </mxCell>
                <mxCell id="69" value="&lt;font style=&quot;font-size: 11px&quot;&gt;5 : appuie sur &quot;sauvegarder&quot; : onPressUpdateUser()&amp;nbsp;&lt;/font&gt;" style="edgeLabel;html=1;align=center;verticalAlign=middle;resizable=0;points=[];" vertex="1" connectable="0" parent="68">
                    <mxGeometry x="-0.5904" y="-1" relative="1" as="geometry">
                        <mxPoint x="122" y="-9" as="offset"/>
                    </mxGeometry>
                </mxCell>
            </root>
        </mxGraphModel>
    </diagram>
</mxfile>